<svg width="53" height="55" viewBox="0 0 53 55" fill="none" xmlns="http://www.w3.org/2000/svg">
<path d="M52.3474 46.4881C51.7063 48.1398 49.2133 51.2361 47.4713 52.5587C45.8935 53.7532 44.778 54.2113 43.3042 54.2809C42.0916 54.3402 41.5889 54.2371 40.0386 53.5968C27.8767 48.5893 18.1666 41.117 10.4555 30.8492C6.4293 25.4875 3.36305 19.9265 1.26789 14.1575C0.0458589 10.7922 -0.0142971 9.33129 0.989453 7.60911C1.42344 6.88379 3.26938 5.08512 4.60914 4.08223C6.84609 2.42106 7.87563 1.80661 8.69891 1.63473C9.2618 1.5127 10.2415 1.60723 10.8654 1.83239C11.1688 1.93637 11.6354 2.17958 11.9044 2.35145C13.5509 3.442 18.1323 9.29778 19.6302 12.2197C20.487 13.8894 20.774 15.1261 20.5059 16.043C20.23 17.0287 19.7702 17.5469 17.7172 19.1995C16.8939 19.8647 16.123 20.5487 16.0019 20.73C15.6891 21.1795 15.4373 22.0612 15.4373 22.6843C15.4484 24.1297 16.3843 26.7491 17.6132 28.7652C18.5654 30.3301 20.273 32.3368 21.9625 33.8776C23.9459 35.6926 25.6956 36.9293 27.6705 37.9072C30.2091 39.1697 31.7594 39.4893 32.8937 38.9617C33.1799 38.8328 33.4833 38.6592 33.5787 38.5818C33.6663 38.5036 34.3323 37.6907 35.0611 36.7909C36.4645 35.0266 36.7833 34.7413 37.7449 34.4122C38.9661 33.9979 40.2122 34.1097 41.4695 34.7499C42.4234 35.2432 44.5022 36.5314 45.8445 37.4655C47.6105 38.7022 51.3901 41.7813 51.8997 42.3949C52.7995 43.5035 52.9524 44.9232 52.3474 46.4881Z" fill="#FFF7E3"/>
<path d="M51.898 42.3958C51.3884 41.7822 47.6088 38.7039 45.8428 37.4664C44.5005 36.5323 42.4225 35.2441 41.4677 34.7508C40.2105 34.1106 38.9644 33.9989 37.7432 34.4131C36.7816 34.7422 36.4627 35.0275 35.0594 36.7918C34.3306 37.6916 33.6646 38.5046 33.5769 38.5828C33.4816 38.6601 33.1782 38.8337 32.892 38.9626C31.7576 39.4903 30.2073 39.1706 27.6687 37.9082C25.6939 36.9302 23.9442 35.6936 21.9608 33.8786C20.2712 32.3377 18.5645 30.3311 17.6115 28.7661C16.3817 26.75 15.4458 24.1298 15.4355 22.6852C15.4355 22.0621 15.6873 21.1813 16.0001 20.731C16.0491 20.6571 16.2055 20.4998 16.429 20.2979C13.3713 22.1318 9.70006 23.2025 5.74952 23.2025C5.64811 23.2025 5.54756 23.1957 5.4453 23.1939C6.90795 25.7901 8.57256 28.3425 10.4546 30.8501C18.1658 41.1179 27.875 48.5902 40.0377 53.5978C41.588 54.238 42.0908 54.342 43.3034 54.2818C44.7772 54.2114 45.8926 53.7533 47.4705 52.5597C49.2116 51.2371 51.7055 48.1407 52.3466 46.489C52.9524 44.9232 52.7994 43.5036 51.898 42.3958Z" fill="#FFF7E3"/>
<path d="M26.1537 1.09652C26.5619 0.72527 26.8472 0.672848 28.2591 0.717536C28.9939 0.743317 30.0776 0.829255 30.668 0.898005C33.6466 1.27011 36.0545 1.98769 38.6963 3.27675C41.2959 4.54777 42.9588 5.75004 45.1596 7.93886C47.2213 10.0048 48.3634 11.5723 49.5768 14.0026C51.2663 17.392 52.2288 21.4225 52.3921 25.8603C52.4514 27.3736 52.4102 27.7114 52.063 28.1436C51.4038 28.9824 49.9601 28.8432 49.4659 27.9013C49.3087 27.5902 49.2657 27.3221 49.2141 26.1103C49.1256 24.2515 48.9967 23.0493 48.7381 21.6132C47.7163 15.9826 45.0127 11.4846 40.6995 8.25855C37.1038 5.56011 33.3879 4.24527 28.5204 3.95996C26.8747 3.86543 26.5868 3.80441 26.2156 3.5191C25.5212 2.9734 25.4868 1.69379 26.1537 1.09652Z" fill="#FFF7E3"/>
<path d="M36.4782 12.2377C34.7371 11.1996 32.1633 10.4287 29.8172 10.2388C28.9681 10.17 28.5006 9.99645 28.1801 9.62434C27.6877 9.06231 27.6344 8.3009 28.052 7.67012C28.5006 6.96973 29.1933 6.85629 31.2644 7.16825C36.5212 7.93825 40.5938 10.3772 43.2621 14.3389C44.7609 16.5698 45.695 19.1909 46.0173 22.0019C46.129 23.0315 46.129 24.9083 46.0078 25.2194C45.8935 25.5133 45.53 25.9121 45.2181 26.0762C44.8812 26.249 44.1619 26.2326 43.7649 26.0238C43.098 25.6869 42.8986 25.1507 42.8986 23.6975C42.8986 21.4571 42.3177 19.0955 41.3131 17.2625C40.1684 15.169 38.5081 13.44 36.4782 12.2377Z" fill="#FFF7E3"/>
<path d="M39.4078 23.7663C38.8956 24.2338 37.9529 24.251 37.3797 23.8093C36.9663 23.4982 36.834 23.169 36.7394 22.2787C36.6251 21.0936 36.4189 20.2635 36.0631 19.4943C35.3 17.8589 33.9594 17.0116 31.6906 16.734C30.6241 16.6051 30.3044 16.4839 29.9564 16.0775C29.3248 15.3247 29.568 14.1052 30.4419 13.6557C30.7711 13.4925 30.9094 13.4736 31.6365 13.5174C32.0876 13.5432 32.7545 13.6214 33.1103 13.6987C34.817 14.0622 36.1233 14.7102 37.2413 15.7578C38.6799 17.1164 39.4688 18.7596 39.8143 21.1203C40.0472 22.6594 39.9509 23.2653 39.4078 23.7663Z" fill="#FFF7E3"/>
<path d="M51.898 42.3952C51.3883 41.7816 47.6088 38.7033 45.8428 37.4658C44.5005 36.5317 42.4225 35.2435 41.4677 34.7502C40.2105 34.11 38.9644 33.9983 37.7432 34.4125C36.7816 34.7416 36.4627 35.0269 35.0594 36.7912C34.3306 37.691 33.6646 38.504 33.5769 38.5822C33.4867 38.6561 33.2057 38.8151 32.9316 38.9422C30.7814 41.5324 28.2488 43.7719 25.4146 45.556C29.8438 48.7288 34.7053 51.3997 40.0394 53.5954C41.5898 54.2357 42.0925 54.3397 43.3051 54.2795C44.7789 54.209 45.8944 53.751 47.4722 52.5573C49.2133 51.2347 51.7072 48.1384 52.3483 46.4867C52.9524 44.9226 52.7994 43.503 51.898 42.3952Z" fill="#FFF7E3"/>
</svg>
