<svg width="55" height="55" viewBox="0 0 55 55" fill="none" xmlns="http://www.w3.org/2000/svg">
<path d="M16.125 0.416992H38.875C47.5417 0.416992 54.5834 7.45866 54.5834 16.1253V38.8753C54.5834 43.0414 52.9284 47.0369 49.9825 49.9828C47.0366 52.9287 43.0411 54.5837 38.875 54.5837H16.125C7.45835 54.5837 0.416687 47.542 0.416687 38.8753V16.1253C0.416687 11.9592 2.07167 7.96374 5.01755 5.01786C7.96344 2.07197 11.9589 0.416992 16.125 0.416992ZM15.5834 5.83366C12.9975 5.83366 10.5175 6.86089 8.68906 8.68937C6.86058 10.5178 5.83335 12.9978 5.83335 15.5837V39.417C5.83335 44.8066 10.1938 49.167 15.5834 49.167H39.4167C42.0025 49.167 44.4825 48.1398 46.311 46.3113C48.1395 44.4828 49.1667 42.0029 49.1667 39.417V15.5837C49.1667 10.1941 44.8063 5.83366 39.4167 5.83366H15.5834ZM41.7188 9.89616C42.6166 9.89616 43.4777 10.2528 44.1126 10.8877C44.7475 11.5226 45.1042 12.3837 45.1042 13.2816C45.1042 14.1794 44.7475 15.0405 44.1126 15.6754C43.4777 16.3103 42.6166 16.667 41.7188 16.667C40.8209 16.667 39.9598 16.3103 39.3249 15.6754C38.69 15.0405 38.3334 14.1794 38.3334 13.2816C38.3334 12.3837 38.69 11.5226 39.3249 10.8877C39.9598 10.2528 40.8209 9.89616 41.7188 9.89616ZM27.5 13.9587C31.0915 13.9587 34.5359 15.3854 37.0754 17.9249C39.615 20.4645 41.0417 23.9089 41.0417 27.5003C41.0417 31.0918 39.615 34.5362 37.0754 37.0757C34.5359 39.6153 31.0915 41.042 27.5 41.042C23.9085 41.042 20.4642 39.6153 17.9246 37.0757C15.3851 34.5362 13.9584 31.0918 13.9584 27.5003C13.9584 23.9089 15.3851 20.4645 17.9246 17.9249C20.4642 15.3854 23.9085 13.9587 27.5 13.9587ZM27.5 19.3753C25.3451 19.3753 23.2785 20.2313 21.7548 21.7551C20.231 23.2788 19.375 25.3454 19.375 27.5003C19.375 29.6552 20.231 31.7218 21.7548 33.2456C23.2785 34.7693 25.3451 35.6253 27.5 35.6253C29.6549 35.6253 31.7215 34.7693 33.2453 33.2456C34.769 31.7218 35.625 29.6552 35.625 27.5003C35.625 25.3454 34.769 23.2788 33.2453 21.7551C31.7215 20.2313 29.6549 19.3753 27.5 19.3753Z" fill="#FFF7e3"/>
</svg>
