<svg width="27" height="28" viewBox="0 0 27 28" fill="none" xmlns="http://www.w3.org/2000/svg">
<path d="M8.06149 0.666992H19.2615C23.5282 0.666992 26.9948 4.13366 26.9948 8.40033V19.6003C26.9948 21.6513 26.1801 23.6183 24.7298 25.0686C23.2795 26.5189 21.3125 27.3337 19.2615 27.3337H8.06149C3.79482 27.3337 0.328156 23.867 0.328156 19.6003V8.40033C0.328156 6.34932 1.14292 4.38231 2.5932 2.93203C4.04348 1.48175 6.01048 0.666992 8.06149 0.666992ZM7.79482 3.33366C6.52178 3.33366 5.30088 3.83937 4.40071 4.73955C3.50054 5.63972 2.99482 6.86062 2.99482 8.13366V19.867C2.99482 22.5203 5.14149 24.667 7.79482 24.667H19.5282C20.8012 24.667 22.0221 24.1613 22.9223 23.2611C23.8224 22.3609 24.3282 21.14 24.3282 19.867V8.13366C24.3282 5.48033 22.1815 3.33366 19.5282 3.33366H7.79482ZM20.6615 5.33366C21.1035 5.33366 21.5274 5.50925 21.84 5.82182C22.1526 6.13438 22.3282 6.5583 22.3282 7.00033C22.3282 7.44235 22.1526 7.86628 21.84 8.17884C21.5274 8.4914 21.1035 8.66699 20.6615 8.66699C20.2195 8.66699 19.7955 8.4914 19.483 8.17884C19.1704 7.86628 18.9948 7.44235 18.9948 7.00033C18.9948 6.5583 19.1704 6.13438 19.483 5.82182C19.7955 5.50925 20.2195 5.33366 20.6615 5.33366ZM13.6615 7.33366C15.4296 7.33366 17.1253 8.03604 18.3755 9.28628C19.6258 10.5365 20.3282 12.2322 20.3282 14.0003C20.3282 15.7684 19.6258 17.4641 18.3755 18.7144C17.1253 19.9646 15.4296 20.667 13.6615 20.667C11.8934 20.667 10.1977 19.9646 8.94744 18.7144C7.6972 17.4641 6.99482 15.7684 6.99482 14.0003C6.99482 12.2322 7.6972 10.5365 8.94744 9.28628C10.1977 8.03604 11.8934 7.33366 13.6615 7.33366ZM13.6615 10.0003C12.6006 10.0003 11.5832 10.4218 10.8331 11.1719C10.0829 11.922 9.66149 12.9395 9.66149 14.0003C9.66149 15.0612 10.0829 16.0786 10.8331 16.8288C11.5832 17.5789 12.6006 18.0003 13.6615 18.0003C14.7224 18.0003 15.7398 17.5789 16.4899 16.8288C17.2401 16.0786 17.6615 15.0612 17.6615 14.0003C17.6615 12.9395 17.2401 11.922 16.4899 11.1719C15.7398 10.4218 14.7224 10.0003 13.6615 10.0003Z" fill="white" fill-opacity="0.56"/>
</svg>
