<svg width="27" height="28" viewBox="0 0 27 28" fill="none" xmlns="http://www.w3.org/2000/svg">
<path d="M26.5865 23.3464C26.2708 24.1595 25.0435 25.6839 24.1859 26.335C23.4091 26.9231 22.86 27.1486 22.1344 27.1828C21.5374 27.212 21.2899 27.1613 20.5267 26.8461C14.5393 24.3808 9.75898 20.7021 5.96271 15.6472C3.9806 13.0076 2.47106 10.2699 1.4396 7.42979C0.83798 5.77302 0.808365 5.05379 1.30252 4.20594C1.51617 3.84886 2.42494 2.96336 3.08452 2.46963C4.18579 1.65182 4.69264 1.34932 5.09794 1.26471C5.37506 1.20463 5.85737 1.25117 6.16452 1.36201C6.31387 1.41321 6.5436 1.53294 6.67602 1.61755C7.48664 2.15444 9.74206 5.03729 10.4795 6.47575C10.9013 7.29779 11.0426 7.90659 10.9106 8.35802C10.7748 8.84329 10.5484 9.0984 9.53771 9.91198C9.13241 10.2394 8.75291 10.5762 8.69325 10.6655C8.53925 10.8867 8.41529 11.3208 8.41529 11.6276C8.42079 12.3392 8.88152 13.6287 9.48652 14.6213C9.95529 15.3917 10.7959 16.3796 11.6277 17.1381C12.6042 18.0317 13.4656 18.6405 14.4378 19.1219C15.6876 19.7434 16.4508 19.9008 17.0093 19.6411C17.1501 19.5776 17.2995 19.4921 17.3464 19.4541C17.3896 19.4156 17.7175 19.0153 18.0763 18.5724C18.7671 17.7038 18.9241 17.5633 19.3975 17.4013C19.9987 17.1974 20.6122 17.2524 21.2311 17.5676C21.7008 17.8104 22.7242 18.4446 23.385 18.9045C24.2544 19.5133 26.1151 21.0292 26.366 21.3313C26.809 21.877 26.8843 22.5759 26.5865 23.3464Z" fill="white" fill-opacity="0.56"/>
<path d="M26.3652 21.3321C26.1143 21.0301 24.2537 19.5146 23.3842 18.9054C22.7234 18.4455 21.7004 17.8113 21.2303 17.5684C20.6114 17.2532 19.9979 17.1982 19.3967 17.4022C18.9233 17.5642 18.7663 17.7047 18.0755 18.5732C17.7167 19.0162 17.3888 19.4164 17.3456 19.4549C17.2987 19.493 17.1493 19.5785 17.0085 19.6419C16.45 19.9017 15.6868 19.7443 14.437 19.1228C13.4648 18.6414 12.6034 18.0326 11.6269 17.139C10.7951 16.3804 9.95491 15.3925 9.48572 14.6221C8.8803 13.6296 8.41957 12.3396 8.41449 11.6284C8.41449 11.3217 8.53845 10.888 8.69245 10.6664C8.71657 10.63 8.79357 10.5525 8.90357 10.4531C7.39826 11.356 5.59087 11.8831 3.64599 11.8831C3.59606 11.8831 3.54656 11.8797 3.49622 11.8789C4.21629 13.157 5.03579 14.4135 5.96233 15.6481C9.75861 20.703 14.5385 24.3817 20.5263 26.8469C21.2896 27.1621 21.5371 27.2133 22.134 27.1837C22.8596 27.149 23.4088 26.9235 24.1855 26.3359C25.0427 25.6847 26.2705 24.1604 26.5861 23.3472C26.8843 22.5764 26.809 21.8775 26.3652 21.3321Z" fill="white" fill-opacity="0.56"/>
<path d="M13.691 0.999831C13.892 0.817062 14.0325 0.791254 14.7276 0.813254C15.0893 0.825947 15.6228 0.868255 15.9135 0.902101C17.3799 1.08529 18.5653 1.43856 19.8659 2.07318C21.1457 2.69891 21.9643 3.29079 23.0478 4.36837C24.0628 5.38545 24.6251 6.15714 25.2224 7.3536C26.0542 9.02222 26.5281 11.0065 26.6084 13.1912C26.6376 13.9363 26.6173 14.1025 26.4464 14.3153C26.1219 14.7283 25.4111 14.6597 25.1679 14.196C25.0904 14.0429 25.0693 13.9109 25.0439 13.3143C25.0003 12.3992 24.9369 11.8073 24.8095 11.1004C24.3065 8.32837 22.9755 6.11399 20.852 4.52576C19.0819 3.19729 17.2525 2.54999 14.8562 2.40952C14.046 2.36299 13.9043 2.33295 13.7215 2.19249C13.3797 1.92383 13.3627 1.29387 13.691 0.999831Z" fill="white" fill-opacity="0.56"/>
<path d="M18.7739 6.48484C17.9167 5.97376 16.6496 5.59426 15.4946 5.50076C15.0766 5.46692 14.8464 5.38146 14.6886 5.19826C14.4462 4.92157 14.42 4.54673 14.6256 4.23619C14.8464 3.89138 15.1874 3.83553 16.207 3.98911C18.795 4.36819 20.8 5.56888 22.1136 7.51926C22.8515 8.61757 23.3114 9.90796 23.47 11.2918C23.525 11.7987 23.525 12.7227 23.4654 12.8758C23.4091 13.0205 23.2301 13.2168 23.0766 13.2977C22.9107 13.3827 22.5566 13.3747 22.3611 13.2718C22.0328 13.106 21.9347 12.842 21.9347 12.1266C21.9347 11.0236 21.6487 9.861 21.1541 8.95857C20.5906 7.92796 19.7732 7.07673 18.7739 6.48484Z" fill="white" fill-opacity="0.56"/>
<path d="M20.2162 12.1601C19.964 12.3903 19.4999 12.3987 19.2177 12.1813C19.0142 12.0281 18.9491 11.8661 18.9025 11.4278C18.8463 10.8443 18.7447 10.4356 18.5696 10.057C18.1939 9.25188 17.5339 8.83472 16.417 8.69807C15.8919 8.63461 15.7345 8.57495 15.5632 8.37484C15.2522 8.00422 15.372 7.40388 15.8022 7.18261C15.9643 7.10222 16.0324 7.09292 16.3903 7.11449C16.6124 7.12719 16.9407 7.16569 17.1159 7.20376C17.9561 7.38272 18.5992 7.70172 19.1496 8.21745C19.8578 8.88634 20.2462 9.69526 20.4163 10.8575C20.531 11.6152 20.4836 11.9135 20.2162 12.1601Z" fill="white" fill-opacity="0.56"/>
<path d="M26.3652 21.3316C26.1143 21.0295 24.2536 19.5141 23.3842 18.9048C22.7233 18.4449 21.7003 17.8107 21.2303 17.5679C20.6113 17.2527 19.9979 17.1977 19.3967 17.4016C18.9232 17.5637 18.7663 17.7041 18.0754 18.5727C17.7166 19.0157 17.3887 19.4159 17.3456 19.4544C17.3012 19.4908 17.1628 19.569 17.0279 19.6317C15.9693 20.9068 14.7225 22.0094 13.3272 22.8877C15.5077 24.4497 17.9011 25.7646 20.5271 26.8455C21.2904 27.1607 21.5379 27.2119 22.1348 27.1823C22.8604 27.1476 23.4096 26.9221 24.1863 26.3345C25.0435 25.6834 26.2713 24.159 26.5869 23.3459C26.8843 22.5759 26.809 21.8769 26.3652 21.3316Z" fill="white" fill-opacity="0.56"/>
</svg>
