<svg width="60" height="44" viewBox="0 0 60 44" fill="none" xmlns="http://www.w3.org/2000/svg">
<path fill-rule="evenodd" clip-rule="evenodd" d="M45.5002 0L40.5118 2.76177V22.9918C40.9022 22.9579 41.2586 22.9228 41.5951 22.8896L41.5955 22.8895L41.5958 22.8895L41.5959 22.8895C42.9121 22.7596 43.9263 22.6596 45.5002 22.7846V0ZM0 42.7902V0.0863054L5.24737 2.79629L5.19558 34.6948L10.3566 31.9848V5.64437L22.6983 12.5143L35.1781 5.64437V23.9239L30.1033 26.1333V13.2738L25.322 15.8111V28.7742L20.3508 31.5533V15.8111L15.7076 13.2738V34.1424L0 42.7902ZM45.6038 31.4669L45.6383 43.0837L33.7799 36.3518L39.3035 34.0043L40.5118 34.7466V32.9169L45.6038 31.4669ZM14.1547 42.8074C14.1547 42.8074 13.8312 42.7209 13.6194 42.7211C13.3219 42.7215 12.8772 42.8937 12.8772 42.8937C15.6554 40.6653 17.3038 39.5015 20.3513 37.5255C21.0176 33.8256 22.3112 32.1886 25.6849 29.7753C24.9369 30.9318 24.3601 32.2331 24.2523 33.425C26.6021 29.9132 28.3074 27.5396 32.0198 26.979L30.3282 30.6556C30.679 30.1592 30.9836 29.7027 31.2766 29.2636C31.9144 28.3076 32.4974 27.4339 33.3834 26.4094C35.1708 25.5399 36.1933 25.1862 38.0439 24.7869C36.34 26.4792 35.5262 27.4512 34.9369 29.3265C36.8684 26.357 37.9741 24.7339 41.1509 24.0274C44.863 23.6573 46.9651 23.6122 50.7308 23.6649C47.9479 24.5201 46.5017 25.1802 45.5697 26.1332C51.0758 23.8759 54.2409 23.6359 60 24.7006L40.3569 31.5532C37.9612 32.1751 36.6296 32.317 34.2637 32.4163C35.1187 32.8317 35.8328 32.966 38.8206 32.4853C33.8755 35.2825 31.4857 35.6436 28.3604 35.6614C28.979 36.0553 29.8034 36.2424 30.7597 36.3345C27.3258 37.1227 25.4843 37.4299 22.4053 37.6464C23.3954 37.0051 24.3043 36.4381 25.1844 35.9183C26.7588 34.9883 28.241 34.2092 29.9312 33.425C31.3829 32.7514 32.9881 32.0741 34.9369 31.2943C35.517 31.0913 36.0612 30.8994 36.5806 30.7162C39.9644 29.5226 42.2958 28.7003 46.6399 27.6177L52.6122 26.2195C50.1829 26.472 48.839 26.6738 46.4673 27.1344C44.0463 27.6562 42.1113 28.1556 40.3569 28.6926C37.7811 29.4809 35.5946 30.35 32.831 31.4894C32.4569 31.6437 32.0722 31.8029 31.6745 31.9675C30.2502 32.6614 28.9537 33.3014 27.739 33.9233C25.9599 34.8341 24.3566 35.706 22.7851 36.6512C22.7026 36.7008 22.6203 36.7506 22.5379 36.8006C22.3669 36.9045 22.1962 37.0094 22.0256 37.1153C19.5668 38.6421 17.1292 40.3944 14.1547 42.8074Z" fill="white"/>
</svg>
